<!DOCTYPE svg PUBLIC "-//W3C//DTD SVG 1.1//EN" "http://www.w3.org/Graphics/SVG/1.1/DTD/svg11.dtd">
<svg version="1.2"
     xmlns="http://www.w3.org/2000/svg" viewBox="0 0 547 497" width="547" height="497">
    <defs>
        <linearGradient id="P" gradientUnits="userSpaceOnUse"/>
        <radialGradient id="g1" cx="0" cy="0" r="1" href="#P"
                        gradientTransform="matrix(0,-561.85,561.85,0,273.25,591.395)">
            <stop stop-color="#a7056f"/>
            <stop offset="1" stop-color="#ffc51f"/>
        </radialGradient>
        <radialGradient id="g2" cx="0" cy="0" r="1" href="#P"
                        gradientTransform="matrix(0,-336.128,336.128,0,272.68,314.159)">
            <stop stop-color="#a7056f"/>
            <stop offset="1" stop-color="#ffc51f"/>
        </radialGradient>
        <linearGradient id="g3" x2="1" href="#P"
                        gradientTransform="matrix(0,-497,1260.232,0,273.5,497)">
            <stop stop-color="#a7056f"/>
            <stop offset="1" stop-color="#ffc51f"/>
        </linearGradient>
        <radialGradient id="g4" cx="0" cy="0" r="1" href="#P"
                        gradientTransform="matrix(NaN,NaN,NaN,NaN,NaN,NaN)">
            <stop stop-color="#a7056f"/><stop offset="1" stop-color="#ffc51f"/>
        </radialGradient>
        <linearGradient id="g5" x2="1" href="#P"
                        gradientTransform="matrix(0,-497,4522038898901560000,276.895,273.5,497)">
            <stop stop-color="#a7056f"/><stop offset="1" stop-color="#ffc51f"/>
        </linearGradient>
        <radialGradient id="g6" cx="0" cy="0" r="1" href="#P"
                        gradientTransform="matrix(0,-119.543,119.543,0,277.184,471.744)">
            <stop stop-color="#a7056f"/><stop offset="1" stop-color="#ffc51f"/>
        </radialGradient>
        <linearGradient id="g7" x2="1" href="#P"
                        gradientTransform="matrix(0,-497,2612.472,0,273.5,497)">
            <stop stop-color="#a7056f"/><stop offset="1" stop-color="#ffc51f"/>
        </linearGradient>
    </defs>
    <style>.a{fill:url(#g1)}.b{fill:url(#g2);stroke:url(#g3);stroke-linecap:round;stroke-miterlimit:100;stroke-width:28}.c{fill:url(#g4);stroke:url(#g5);stroke-linecap:round;stroke-miterlimit:100;stroke-width:28}.d{fill:url(#g6);stroke:url(#g7);stroke-linecap:round;stroke-miterlimit:100;stroke-width:28}</style>
    <path fill-rule="evenodd" class="a" d="m108 297.3c0-91.4 73.9-165.3 165.3-165.3 91.3 0 165.2 73.9 165.2 165.3q0 0.7 0 1.4h-330.5q0-0.7 0-1.4z"/>
    <path class="b" d="m88 99l55 50.3m130.6-44.5l-0.3-65.5m-185.3 197.7l-66-17m382.9-71.3l54.3-49.7m2.8 136.8l61.4-15.8m-149.4-73.2"/>
    <path class="c" d="m524 308h-502"/>
    <path class="d" d="m209 374h253m-369.6 0h72.6m183.3 70.3h50m-262.1 0h174.4"/>
</svg>